<?xml version="1.0" encoding="iso-8859-1"?>
<!-- Generator: Adobe Illustrator 19.0.0, SVG Export Plug-In . SVG Version: 6.00 Build 0)  -->
<svg version="1.1" id="Capa_1" xmlns="http://www.w3.org/2000/svg" xmlns:xlink="http://www.w3.org/1999/xlink" x="0px" y="0px"
	 viewBox="0 0 496 496" style="enable-background:new 0 0 496 496;" xml:space="preserve">
<g>
	<g>
		<rect x="184" y="416" width="128" height="16"/>
	</g>
</g>
<g>
	<g>
		<path d="M297.944,88c-8.544,0-16.584,3.328-22.632,9.376l-8.968,8.968l11.312,11.312l8.968-8.968
			c3.024-3.024,7.04-4.688,11.32-4.688H344V88H297.944z"/>
	</g>
</g>
<g>
	<g>
		<path d="M220.688,97.376c-6.04-6.048-14.08-9.376-22.632-9.376H152v16h46.056c4.272,0,8.296,1.664,11.32,4.688l8.968,8.968
			l11.312-11.312L220.688,97.376z"/>
	</g>
</g>
<g>
	<g>
		<path d="M496,352v-16h-48V126.504c0-26.448-18.032-48.928-43.848-54.664L304,49.584V0h-16v62.416l112.68,25.04
			c18.44,4.096,31.32,20.152,31.32,39.048V336h-32V192c0-13.232-10.768-24-24-24h-56v-16H120c-13.232,0-24,10.768-24,24v160H64
			V126.504c0-18.896,12.88-34.952,31.32-39.048L208,62.416V0h-16v49.584L91.848,71.84C66.032,77.576,48,100.056,48,126.504V336H0v16
			h136v3.056L126.112,360C112.472,366.816,104,380.528,104,395.776V472c0,13.232,10.768,24,24,24h240c13.232,0,24-10.768,24-24
			v-76.224c0-15.248-8.472-28.96-22.112-35.776L360,355.056V352H496z M112,336V176c0-4.408,3.592-8,8-8h184v119.904
			C289.24,279.032,270.472,272,248,272c-51.128,0-83.096,36.328-92.048,48H136v16H112z M318.68,320H177.256
			c12.92-13.152,37.24-32,70.744-32C281.336,288,305.704,306.848,318.68,320z M336,480H160v-72c0-4.408,3.592-8,8-8h160
			c4.408,0,8,3.592,8,8V480z M362.736,374.312C370.92,378.4,376,386.624,376,395.776V472c0,4.408-3.592,8-8,8h-16v-72
			c0-13.232-10.768-24-24-24H168c-13.232,0-24,10.768-24,24v72h-16c-4.408,0-8-3.592-8-8v-76.224c0-9.152,5.08-17.376,13.264-21.464
			L145.888,368H288v-16H152v-16h192v16h-40v16h46.112L362.736,374.312z M340.048,320c-3.408-4.44-10.176-12.4-20.048-20.632V184h56
			c4.408,0,8,3.592,8,8v144h-24v-16H340.048z"/>
	</g>
</g>
<g>
	<g>
		<rect x="240" y="448" width="16" height="16"/>
	</g>
</g>
<g>
	<g>
		<rect x="280" y="448" width="16" height="16"/>
	</g>
</g>
<g>
	<g>
		<rect x="200" y="448" width="16" height="16"/>
	</g>
</g>
<g>
</g>
<g>
</g>
<g>
</g>
<g>
</g>
<g>
</g>
<g>
</g>
<g>
</g>
<g>
</g>
<g>
</g>
<g>
</g>
<g>
</g>
<g>
</g>
<g>
</g>
<g>
</g>
<g>
</g>
</svg>
