<?xml version="1.0" encoding="UTF-8" standalone="no"?>
<svg
   xmlns:dc="http://purl.org/dc/elements/1.1/"
   xmlns:cc="http://creativecommons.org/ns#"
   xmlns:rdf="http://www.w3.org/1999/02/22-rdf-syntax-ns#"
   xmlns:svg="http://www.w3.org/2000/svg"
   xmlns="http://www.w3.org/2000/svg"
   xmlns:sodipodi="http://sodipodi.sourceforge.net/DTD/sodipodi-0.dtd"
   xmlns:inkscape="http://www.inkscape.org/namespaces/inkscape"
   id="Capa_1"
   enable-background="new 0 0 512.005 512.005"
   height="512"
   viewBox="0 0 512.005 512.005"
   width="512"
   version="1.1"
   sodipodi:docname="eyebrow.svg"
   inkscape:version="0.92.3 (2405546, 2018-03-11)">
  <metadata
     id="metadata7241">
    <rdf:RDF>
      <cc:Work
         rdf:about="">
        <dc:format>image/svg+xml</dc:format>
        <dc:type
           rdf:resource="http://purl.org/dc/dcmitype/StillImage" />
        <dc:title></dc:title>
      </cc:Work>
    </rdf:RDF>
  </metadata>
  <defs
     id="defs7239" />
  <sodipodi:namedview
     pagecolor="#ffffff"
     bordercolor="#666666"
     borderopacity="1"
     objecttolerance="10"
     gridtolerance="10"
     guidetolerance="10"
     inkscape:pageopacity="0"
     inkscape:pageshadow="2"
     inkscape:window-width="873"
     inkscape:window-height="480"
     id="namedview7237"
     showgrid="false"
     inkscape:zoom="0.4609375"
     inkscape:cx="256"
     inkscape:cy="256"
     inkscape:window-x="0"
     inkscape:window-y="0"
     inkscape:window-maximized="0"
     inkscape:current-layer="Capa_1" />
  <g
     id="g7234"
     style="fill:#ff5555;fill-opacity:1">
    <path
       d="m510.421 189.479c-67.625-135.248-215.328-138.525-283.965-121.366l-215.074 53.518c-8.581 2.135-13.446 11.187-10.538 19.506l21.48 61.446c7.866 23.398 33.198 36.242 56.883 28.348.14-.047.279-.095.418-.146l160.701-58.896c82.569-30.262 177.475-16.353 247.677 36.299 5.564 4.174 13.27 3.973 18.611-.484 5.342-4.458 6.918-12.003 3.807-18.225z"
       id="path7230"
       style="fill:#ff5555;fill-opacity:1" />
    <path
       d="m457.004 274.187c-23.661 14.157-63.708 58.411-131.57 77.771-.155.034-.31.053-.465.092-.535.134-1.053.298-1.559.485-19.405 5.349-41.057 8.653-65.218 8.653-82.832 0-128.768-38.515-175.48-58.417-7.41-3.704-16.42-.701-20.125 6.708-3.705 7.41-.701 16.42 6.708 20.125 7.291 3.078 14.76 6.768 22.543 10.79l-24.353 36.53c-4.595 6.893-2.732 16.206 4.161 20.801 6.872 4.582 16.191 2.754 20.801-4.16l26.133-39.199c14.252 7.294 29.776 14.67 47.196 20.887l-11.188 44.752c-2.009 8.037 2.877 16.181 10.914 18.19 8.015 2.002 16.175-2.853 18.19-10.914l10.863-43.453c14.228 3.4 29.641 5.844 46.46 6.849v45.511c0 8.284 6.704 15 14.988 15s15-6.716 15-15v-45.313c15.71-.738 31.329-2.827 46.66-6.2l10.924 43.693c2.022 8.086 10.202 12.912 18.19 10.914 8.037-2.009 12.923-10.153 10.914-18.19l-11.103-44.411c16.493-5.524 32.471-12.581 47.672-21.066l25.409 38.114c4.616 6.924 13.94 8.735 20.801 4.16 6.893-4.595 8.756-13.908 4.161-20.801l-24.997-37.496c5.881-4.181 4.22-3.089 55.37-41.403 6.627-4.971 7.971-14.373 3-21-4.97-6.629-14.371-7.973-21-3.002z"
       id="path7232"
       style="fill:#ff5555;fill-opacity:1" />
  </g>
</svg>
