<?xml version="1.0" encoding="UTF-8" standalone="no"?>
<!-- Generator: Adobe Illustrator 19.0.0, SVG Export Plug-In . SVG Version: 6.00 Build 0)  -->

<svg
   xmlns:dc="http://purl.org/dc/elements/1.1/"
   xmlns:cc="http://creativecommons.org/ns#"
   xmlns:rdf="http://www.w3.org/1999/02/22-rdf-syntax-ns#"
   xmlns:svg="http://www.w3.org/2000/svg"
   xmlns="http://www.w3.org/2000/svg"
   xmlns:sodipodi="http://sodipodi.sourceforge.net/DTD/sodipodi-0.dtd"
   xmlns:inkscape="http://www.inkscape.org/namespaces/inkscape"
   version="1.1"
   id="Capa_1"
   x="0px"
   y="0px"
   viewBox="0 0 512 512"
   style="enable-background:new 0 0 512 512;"
   xml:space="preserve"
   sodipodi:docname="wax.svg"
   inkscape:version="0.92.3 (2405546, 2018-03-11)"><metadata
   id="metadata1184"><rdf:RDF><cc:Work
       rdf:about=""><dc:format>image/svg+xml</dc:format><dc:type
         rdf:resource="http://purl.org/dc/dcmitype/StillImage" /><dc:title></dc:title></cc:Work></rdf:RDF></metadata><defs
   id="defs1182" /><sodipodi:namedview
   pagecolor="#ffffff"
   bordercolor="#666666"
   borderopacity="1"
   objecttolerance="10"
   gridtolerance="10"
   guidetolerance="10"
   inkscape:pageopacity="0"
   inkscape:pageshadow="2"
   inkscape:window-width="1366"
   inkscape:window-height="701"
   id="namedview1180"
   showgrid="false"
   inkscape:zoom="0.4609375"
   inkscape:cx="273.77222"
   inkscape:cy="337.78145"
   inkscape:window-x="0"
   inkscape:window-y="0"
   inkscape:window-maximized="1"
   inkscape:current-layer="Capa_1" />
<g
   id="g1147"
   style="fill:#ff5555;fill-opacity:1">
	<g
   id="g1145"
   style="fill:#ff5555;fill-opacity:1">
		<path
   d="M469.333,0H128c-11.32-0.012-22.179,4.479-30.183,12.483c-8.004,8.004-12.495,18.864-12.483,30.183V128    c0.015,14.132,11.468,25.585,25.6,25.6c14.111-0.066,25.534-11.489,25.6-25.6c-0.005-2.302,0.942-4.504,2.617-6.083    c1.613-1.57,3.784-2.435,6.035-2.404c2.251,0.031,4.397,0.956,5.965,2.57c1.586,1.558,2.471,3.694,2.45,5.917v51.2    c0.015,14.132,11.468,25.585,25.6,25.6c14.111-0.066,25.534-11.489,25.6-25.6V128c0.003-4.711,3.822-8.53,8.533-8.533    c2.302-0.005,4.503,0.942,6.083,2.617c1.586,1.558,2.471,3.694,2.45,5.917v111.016c-2.848-0.031-5.675-0.083-8.533-0.083    C107.317,238.933,0,259.45,0,298.667C0,416.487,95.513,512,213.333,512s213.333-95.513,213.333-213.333    c0-33.923-77.886-51.792-153.6-57.528V96c0.029-3.565,0.257-7.127,0.683-10.667h195.583c23.564,0,42.667-19.102,42.667-42.667    S492.898,0,469.333,0z M213.333,494.933c-98.236-0.133-181.285-72.786-194.475-170.133    C54.224,346.944,134.131,358.4,213.333,358.4c13.317,0,25.425-0.283,36.992-0.858c59.251-2.641,125.706-12.708,157.456-32.525    C394.494,422.267,311.488,494.802,213.333,494.933z M409.6,298.667c0,14.175-56.992,37.225-160.083,41.825    c-11.317,0.567-23.158,0.842-36.183,0.842c-119.808,0-196.267-25.267-196.267-42.667S93.525,256,213.333,256    c2.85,0,5.7,0.025,8.533,0.05v17.017c0.015,14.132,11.468,25.585,25.6,25.6c14.111-0.066,25.534-11.489,25.6-25.6V258.25    C362.217,265.15,409.6,285.833,409.6,298.667z M271.092,41.558C260.951,57.886,255.712,76.782,256,96v177.067    c0.005,2.302-0.942,4.504-2.617,6.083c-1.558,1.586-3.694,2.471-5.917,2.45c-4.711-0.003-8.53-3.822-8.533-8.533V128    c-0.066-14.111-11.489-25.534-25.6-25.6c-14.132,0.015-25.585,11.468-25.6,25.6v51.2c0.005,2.302-0.942,4.504-2.617,6.083    c-1.558,1.586-3.694,2.471-5.917,2.45c-4.711-0.003-8.53-3.822-8.533-8.533V128c0.055-6.756-2.633-13.245-7.45-17.983    c-10.06-9.713-25.984-9.786-36.133-0.167c-4.905,4.76-7.656,11.315-7.617,18.15c0.005,2.302-0.942,4.504-2.617,6.083    c-1.558,1.586-3.694,2.471-5.917,2.45c-4.712-0.003-8.53-3.822-8.533-8.533V42.667c-0.013-6.794,2.679-13.313,7.483-18.117    s11.323-7.497,18.117-7.483l159.964,0c-2.597,5.989-6.211,11.484-10.681,16.242C274.96,35.853,272.886,38.616,271.092,41.558z     M469.333,68.267H277.466c1.93-6.208,4.649-12.143,8.092-17.658c1.261-2.083,2.724-4.036,4.367-5.833    c7.479-7.812,12.953-17.319,15.955-27.708h163.453c14.138,0,25.6,11.462,25.6,25.6S483.472,68.267,469.333,68.267z"
   id="path1143"
   style="fill:#ff5555;fill-opacity:1" />
	</g>
</g>
<g
   id="g1149">
</g>
<g
   id="g1151">
</g>
<g
   id="g1153">
</g>
<g
   id="g1155">
</g>
<g
   id="g1157">
</g>
<g
   id="g1159">
</g>
<g
   id="g1161">
</g>
<g
   id="g1163">
</g>
<g
   id="g1165">
</g>
<g
   id="g1167">
</g>
<g
   id="g1169">
</g>
<g
   id="g1171">
</g>
<g
   id="g1173">
</g>
<g
   id="g1175">
</g>
<g
   id="g1177">
</g>
</svg>